PathFileType	4	(X/Y/Z)	C:/Users/beibeiliu/ov580/test_trc/User3\sequence.14_training_dense_left.trc
DataRate	CameraRate	NumFrames	NumMarkers	Units	OrigDataRate	OrigDataStartFrame	OrigNumFrames
120	120	11	19	mm	120	62	246
Frame#	Time	ThumbCMC			ThumbMCP			ThumbIP			ThumbTip			IndexMCP			IndexPIP			IndexTip			MiddleMCP			MiddlePIP			MiddleTip			RingMCP			RingPIP			RingTip			PinkyMCP			PinkyPIP			PinkyTip			BackHand1			BackHand2			BackHand3	
		X0	Y0	Z0	X1	Y1	Z1	X2	Y2	Z2	X3	Y3	Z3	X4	Y4	Z4	X5	Y5	Z5	X6	Y6	Z6	X7	Y7	Z7	X8	Y8	Z8	X9	Y9	Z9	X10	Y10	Z10	X11	Y11	Z11	X12	Y12	Z12	X13	Y13	Z13	X14	Y14	Z14	X15	Y15	Z15	X16	Y16	Z16	X17	Y17	Z17	X18	Y18	Z18	
61	0.508333	-153.755	-35.5679	15.8698	-132.866	-44.7081	0.49758	-110.753	-53.0168	-16.4773	-93.5619	-60.8414	-31.253	-175.034	-31.0839	-60.1304	-165.352	-31.1652	-87.2794	-155.505	-32.5794	-110.932	-201.054	-30.235	-69.4636	-203.912	-33.8309	-96.7242	-203.289	-38.1887	-127.264	-226.184	-39.3367	-55.8801	-229.149	-42.9633	-81.974	-237.882	-50.2442	-106.979	-245.749	-48.6678	-38.6323	-255.048	-55.6188	-57.242	-263.926	-61.9405	-74.8376	-219.686	-23.5234	-11.0416	-217.739	-17.7218	18.7652	-182.71	-15.6215	2.40965	
62	0.516667	-154.106	-35.5755	17.2364	-131.973	-44.5324	-2.23422	-112.881	-52.315	-15.8936	-94.5207	-59.7937	-32.6451	-171.71	-30.362	-62.7686	-162.89	-30.5692	-85.1992	-157.293	-32.4517	-112.892	-200.253	-29.9725	-67.2602	-200.023	-32.9955	-97.4558	-204.816	-36.9471	-125.42	-224.538	-39.4353	-58.2069	-226.405	-42.2387	-80.8659	-235.177	-49.7423	-108.114	-242.806	-48.0015	-38.0051	-254.116	-55.0896	-56.3545	-266.006	-60.0859	-75.6747	-216.109	-20.6297	-6.18409	-214.697	-17.2335	20.0071	-183.98	-17.063	1.94891	
63	0.525	-155.044	-35.9827	16.3403	-132.507	-43.6972	-0.28625	-112.541	-51.5009	-17.3001	-95.3748	-59.8216	-32.3084	-170.875	-30.6556	-61.1936	-161.543	-31.1663	-87.781	-153.954	-32.8018	-112.114	-201.527	-29.6587	-68.468	-200.284	-32.6087	-93.9806	-200.337	-38.4334	-126.152	-222.121	-38.7994	-54.9332	-226.099	-43.3685	-81.9409	-234.754	-49.792	-105.345	-239.202	-46.8427	-36.6366	-253.382	-54.7414	-54.7279	-261.336	-59.7424	-76.7943	-214.681	-21.4905	-7.26905	-219.652	-15.4362	22.5454	-183.086	-15.5676	0.0990447	
64	0.533333	-157.125	-35.1945	14.3219	-132.71	-43.6923	2.41665	-108.209	-50.9778	-19.9201	-96.3004	-60.2614	-31.6819	-170.994	-29.7942	-63.4564	-160.44	-31.2184	-89.1729	-151.998	-34.3995	-108.835	-198.981	-28.6971	-67.9757	-201.662	-33.8914	-96.988	-203.046	-40.8656	-126.967	-224.794	-38.3492	-57.5967	-227.61	-43.1902	-80.5518	-232.511	-51.3558	-106.693	-238.947	-47.8468	-38.916	-252.279	-54.6261	-56.7101	-265.073	-60.9986	-73.0172	-217.174	-21.3066	-7.45027	-217.485	-17.3795	21.4285	-183.274	-17.6671	1.52871	
65	0.541667	-155.894	-34.9008	14.3871	-131.203	-42.9984	-3.62828	-111.65	-51.5143	-15.9823	-95.3735	-59.0388	-31.7656	-170.497	-29.0642	-58.6939	-161.49	-31.8919	-88.6268	-152.902	-36.155	-113.618	-198.947	-28.7563	-68.4671	-203.946	-34.7853	-96.358	-205.843	-42.5533	-123.293	-219.986	-38.7634	-59.0895	-226.793	-44.6754	-83.2005	-234.559	-53.0595	-106.235	-240.303	-48.4914	-41.7035	-254.214	-56.8986	-55.5599	-260.461	-61.6202	-76.9193	-216.753	-21.9728	-5.58177	-220.268	-15.5193	18.6844	-186.357	-15.3672	2.30159	
66	0.55	-153.728	-34.7894	14.8358	-130.175	-41.9239	0.892583	-109.778	-51.1157	-17.9614	-92.9471	-59.3967	-31.3347	-169.35	-29.0834	-58.0129	-159.788	-31.4492	-86.4821	-151.593	-38.4751	-111.689	-201.497	-29.1	-68.7075	-199.404	-33.5176	-92.7922	-203.912	-46.0467	-125.839	-221.776	-39.3395	-58.5543	-229.765	-44.6445	-81.3353	-232.318	-53.3413	-103.538	-240.737	-48.1406	-36.5384	-250.609	-57.1999	-55.6814	-264.329	-66.1632	-72.7644	-215.899	-20.3833	-5.69048	-218.921	-17.6725	19.5555	-184.884	-14.6396	2.93887	
67	0.558333	-152.643	-33.6729	14.7931	-131.196	-43.0529	1.13598	-107.804	-50.8277	-17.6983	-96.0906	-61.6292	-34.8868	-172.405	-29.4545	-59.6597	-160.79	-32.2799	-85.5062	-152.373	-38.7245	-110.052	-202.177	-30.4987	-66.5147	-202.681	-36.0571	-95.4209	-205.062	-47.491	-123.175	-221.741	-39.4158	-57.3677	-227.702	-47.1436	-83.4117	-231.311	-56.6059	-106.049	-243.004	-50.0028	-40.1301	-253.575	-59.47	-57.2208	-261.91	-69.6112	-76.9267	-217.53	-19.7248	-6.082	-217.3	-18.1721	19.2372	-184.894	-15.5356	2.57979	
68	0.566667	-152.693	-34.2	16.581	-129.783	-43.2349	1.8022	-112.018	-51.3281	-15.7961	-94.778	-61.6696	-31.926	-170.091	-29.3437	-62.0319	-160.793	-32.748	-90.3507	-157.06	-40.2921	-111.669	-202.275	-29.09	-66.751	-203.586	-35.7699	-92.7966	-201.499	-48.0098	-122.524	-219.673	-38.4347	-55.7402	-226.694	-46.3153	-81.2392	-233.748	-56.5465	-102.895	-244.067	-49.7026	-37.4639	-251.571	-58.5029	-57.2163	-258.735	-67.7801	-75.5137	-216.8	-21.0532	-9.06947	-220.099	-16.1278	20.7118	-186.364	-16.8002	2.05674	
69	0.575	-156.021	-34.7648	17.0385	-130.809	-43.5816	-1.21273	-109.395	-51.333	-17.7591	-94.5216	-61.7496	-30.6077	-166.558	-29.4048	-61.6513	-160.564	-34.7792	-89.9511	-156.269	-42.5579	-111.832	-202.239	-30.2367	-69.5728	-203.401	-35.7713	-93.3639	-201.777	-49.5221	-125.132	-222.997	-39.7446	-56.3278	-228.362	-45.4995	-79.0838	-230.008	-56.846	-103.716	-243.576	-49.2573	-38.6891	-250.34	-58.0613	-56.8101	-260.602	-67.1234	-72.0836	-218.177	-19.7879	-4.97558	-219.638	-17.1283	24.9153	-185.642	-16.3553	3.42811	
70	0.583333	-152.205	-33.5817	16.7898	-133.689	-43.5606	-0.48913	-109.217	-51.8552	-17.7781	-94.3515	-60.9882	-32.7601	-166.633	-28.688	-61.7507	-158.138	-32.5972	-84.486	-155.739	-43.7173	-113.888	-197.834	-29.7584	-66.9082	-201.925	-36.205	-93.6119	-197.848	-48.9251	-123.429	-222.581	-38.7305	-55.6591	-225.252	-47.0076	-83.7643	-231.088	-59.1588	-108.219	-243.845	-49.3694	-39.3793	-253.218	-58.6153	-53.0757	-259.046	-69.179	-76.3243	-218.682	-20.2649	-7.77128	-213.999	-16.9008	23.0465	-184.369	-15.8423	3.90039	
71	0.591667	-152.041	-32.7841	13.1736	-130.714	-42.1626	2.88298	-111.374	-51.3057	-18.1751	-93.1183	-60.752	-31.7091	-171.507	-29.5173	-63.148	-160.06	-34.5459	-89.1276	-154.892	-44.7255	-113.96	-199.256	-28.5198	-66.547	-198.604	-35.9501	-94.4709	-199.452	-50.1094	-126.696	-220.105	-39.2986	-59.0254	-225.524	-45.4089	-79.0841	-231.425	-59.3693	-107.976	-240.853	-48.8726	-35.21	-250.723	-58.8572	-55.8152	-259.797	-68.331	-76.939	-217.643	-20.5761	-9.42125	-216.395	-15.6432	21.2163	-181.366	-14.5496	1.39376	
